<svg width="104" height="104" viewBox="0 0 104 104" fill="none" xmlns="http://www.w3.org/2000/svg">
<path d="M28.6554 28.546L23.533 43.3409L24.7407 44.2642L17.273 66.6005C17.273 66.6005 16.9185 67.3466 17.6645 67.6679C18.4105 67.9892 18.8722 67.5977 19.0162 67.1693C19.1603 66.7409 26.8051 44.8329 26.8051 44.8329L29.9702 44.6557L31.0744 42.0963L52.9972 71.0397L54.4745 62.3349L33.0651 35.1605L33.9182 32.6713C33.9182 32.6713 34.0068 30.3704 32.7992 28.9449C31.5915 27.523 25.5088 22.286 25.5088 22.286H27.0193V20.011H24.0131C24.0131 20.011 22.1628 20.0812 22.1628 21.8613C22.1628 23.6378 28.6554 28.546 28.6554 28.546Z" fill="#5B5A57"/>
<path d="M66.1412 70.6409C66.1412 70.6409 74.5173 70.5892 80.1199 69.7878C85.7225 68.9864 85.8813 64.3847 85.8813 64.3847C83.9608 52.7401 94.4162 51.8426 95.646 51.7023C96.8722 51.5583 102.142 51.7023 102.142 51.7023C98.2719 46.5208 92.0932 43.1674 85.1315 43.1674C73.4131 43.1674 63.9142 52.6662 63.9142 64.3847C63.9142 66.6264 64.2651 68.7907 64.9077 70.8182C65.554 70.6594 66.1412 70.6409 66.1412 70.6409Z" fill="#9ACFD8"/>
<path d="M65.3952 59.5946C61.7685 58.7415 60.4869 59.5946 60.4869 59.5946L47.7233 64.0745L52.9898 71.025C52.9935 71.0287 52.9972 71.0324 53.0008 71.0398C54.1531 72.5762 55.9886 73.5696 58.0568 73.5696C58.3412 73.5696 58.6182 73.5475 58.8915 73.5142C58.9247 73.5105 58.9616 73.5068 59.0023 73.4995C59.9329 73.3591 60.7935 73.0193 61.5469 72.5208C62.4443 72.0923 63.3048 71.627 63.6963 71.3352C64.5494 70.6963 66.1486 70.6409 66.1486 70.6409C66.1486 70.6409 74.5247 70.5892 80.1273 69.7878L85.8886 64.3847C85.8813 64.3847 69.0219 60.4514 65.3952 59.5946Z" fill="#9ACFD8"/>
<path d="M50.5116 60.1818L60.4352 56.9909C60.4352 56.9909 61.8718 56.2006 65.2363 56.9909C68.5971 57.7813 84.1787 61.9435 84.1787 61.9435C84.1787 61.9435 88.5551 63.8639 85.8849 68.1332L81.8409 69.3705L81.8261 65.7844C81.8261 65.7844 82.1474 63.971 80.973 63.5426C79.7985 63.1142 65.3951 59.5946 65.3951 59.5946C65.3951 59.5946 62.086 59.1662 60.4869 59.5946C58.8877 60.023 50.7738 63.0034 50.7738 63.0034L50.5116 60.1818Z" fill="#5B5A57"/>
<path d="M63.9105 56.6401L66.0341 46.2586L62.5145 45.5273L60.4315 56.991L63.9105 56.6401Z" fill="#5B5A57"/>
<path d="M69.5943 29.0631C66.0858 29.6503 64.9483 29.3069 63.0463 29.0409C60.8156 28.7307 59.475 29.4103 58.7511 29.739C58.0273 30.0676 57.1557 31.3824 58.681 31.6594L65.6389 32.9262C65.3102 34.8319 63.6409 44.4637 63.5449 44.7517L65.5281 45.1432L67.7145 33.3029L71.3412 33.964C71.3412 33.964 73.3983 34.1819 73.4685 32.1912C73.5386 30.2006 73.1028 28.4759 69.5943 29.0631Z" fill="black"/>
<path d="M8.34657 26.6293C6.58493 26.6293 6.58493 28.2986 6.58493 28.2986C6.58493 28.2986 6.61448 28.4648 6.66618 28.7603L16.948 29.787C16.948 29.787 20.4861 29.5174 21.269 35.3896H18.5102C18.5102 35.3896 17.9673 32.1876 15.4079 32.0288C13.554 31.9143 9.32527 31.545 7.12783 31.3529C7.24601 32.0103 7.37526 32.7231 7.51191 33.4506L10.6954 33.7682C10.6954 33.7682 14.2335 33.4987 15.0165 39.3708H12.2577C12.2577 39.3708 11.7148 36.1688 9.15538 36.01C8.83038 35.9915 8.43521 35.962 7.99203 35.9288C8.24686 37.2103 8.49061 38.3256 8.67158 38.9572C9.3105 41.1989 11.2309 41.1989 11.2309 41.1989C11.2309 41.1989 19.1639 41.9265 20.7261 42.2109C22.292 42.4952 22.8608 40.5046 22.8608 40.5046L27.023 28.4094C27.0193 28.4057 10.1045 26.6293 8.34657 26.6293Z" fill="#9ACFD8"/>
<path d="M27.5253 47.1929L26.5466 50.3173C31.5804 52.9912 35.0224 58.2872 35.0224 64.3736C35.0224 73.1412 27.8872 80.2764 19.1196 80.2764C10.352 80.2764 3.21676 73.1412 3.21676 64.3736C3.21676 55.606 10.352 48.4707 19.1196 48.4707C20.0207 48.4707 20.9034 48.552 21.7676 48.696L22.7315 45.5937C21.5645 45.3721 20.3568 45.254 19.1233 45.254C8.56079 45.254 0 53.8148 0 64.3773C0 74.9398 8.56079 83.5006 19.1233 83.5006C29.6858 83.5006 38.2466 74.9398 38.2466 64.3773C38.2429 56.8284 33.8739 50.3062 27.5253 47.1929Z" fill="#26272F"/>
<path d="M97.873 53.1537C97.0716 53.1537 96.5693 53.1648 96.2554 53.1795C99.0511 56.0455 100.78 59.9602 100.78 64.2739C100.78 73.0415 93.6443 80.1767 84.8767 80.1767C78.9233 80.1767 73.7307 76.8898 71.0051 72.0332C69.5611 72.0923 68.3128 72.1219 67.4412 72.1366C70.4401 78.7733 77.121 83.3935 84.8767 83.3935C95.4392 83.3935 104 74.8327 104 64.2702C104 60.1338 102.689 56.3077 100.458 53.1795C99.6753 53.1648 98.7298 53.1537 97.873 53.1537Z" fill="#26272F"/>
<path d="M27.8614 22.2787H34.8341C34.8341 22.2787 35.8313 22.4227 35.8313 21.2815C35.8313 20.144 35.2625 20 34.7639 20C34.2654 20 27.8614 20 27.8614 20V22.2787Z" fill="black"/>
<path d="M84.6441 54.8119C84.4557 54.7344 84.2378 54.8193 84.1566 55.0077C83.3551 56.9023 81.8778 57.3861 79.8244 57.3861C77.0102 57.3861 74.7205 55.0963 74.7205 52.2821C74.7205 49.4679 77.0102 47.1781 79.8244 47.1781C81.8261 47.1781 83.6543 48.3563 84.4742 50.1733C84.6625 50.6239 85.0429 51.9312 84.5517 52.5443C84.3597 52.7844 84.0162 52.8989 83.5509 52.9063C83.5656 51.9756 83.0006 51.1003 82.0736 50.7716L79.9722 50.0293L79.7506 50.6608L77.7637 49.9776C77.5642 49.9111 77.3574 50.0145 77.2909 50.2065C77.2244 50.3986 77.3279 50.6091 77.5199 50.6756L79.5031 51.3588L78.9639 52.8878L76.977 52.2156C76.785 52.1492 76.5744 52.2526 76.508 52.4483C76.4415 52.644 76.5449 52.8509 76.7406 52.9173L78.7202 53.5858L78.4912 54.2321L80.5926 54.9744C81.7412 55.3807 82.9969 54.7861 83.4179 53.6486C84.1898 53.6671 84.7696 53.4565 85.1315 53.006C85.981 51.9497 85.246 50.0957 85.1537 49.8778C84.2082 47.7875 82.1179 46.4358 79.8244 46.4358C76.6003 46.4358 73.9781 49.058 73.9781 52.2821C73.9781 55.5063 76.6003 58.1284 79.8244 58.1284C82.177 58.1284 83.9239 57.4673 84.8398 55.2957C84.921 55.1074 84.8324 54.8895 84.6441 54.8119Z" fill="white"/>
</svg>
