<svg width="104" height="104" viewBox="0 0 104 104" fill="none" xmlns="http://www.w3.org/2000/svg">
<path d="M28.653 28.5453L23.531 43.339L24.7385 44.2622L17.2715 66.5967C17.2715 66.5967 16.917 67.3426 17.663 67.6639C18.4089 67.9852 18.8705 67.5938 19.0146 67.1654C19.1586 66.737 26.8028 44.8309 26.8028 44.8309L29.9676 44.6536L31.0718 42.0945L52.9927 71.0355L54.4698 62.3314L33.0623 35.1593L33.9153 32.6703C33.9153 32.6703 34.0039 30.3696 32.7964 28.9442C31.5888 27.5224 25.5066 22.2859 25.5066 22.2859H27.017V20.0111H24.011C24.011 20.0111 22.1609 20.0813 22.1609 21.8612C22.1609 23.6375 28.653 28.5453 28.653 28.5453Z" fill="#5B5A57"/>
<path d="M66.1356 70.6367C66.1356 70.6367 74.511 70.585 80.1131 69.7836C85.7152 68.9823 85.874 64.3809 85.874 64.3809C83.9537 52.7373 94.4082 51.84 95.638 51.6996C96.8677 51.5593 102.134 51.6996 102.134 51.6996C98.2636 46.5185 92.0854 43.1654 85.1244 43.1654C73.4069 43.1654 63.9088 52.6635 63.9088 64.3809C63.9088 66.6225 64.2596 68.7865 64.9022 70.8139C65.5484 70.6551 66.1356 70.6367 66.1356 70.6367Z" fill="#76C458"/>
<path d="M65.3897 59.5913C61.7633 58.7382 60.4818 59.5913 60.4818 59.5913L47.7193 64.0707L52.9853 71.0207C52.989 71.0244 52.9927 71.0281 52.9964 71.0355C54.1486 72.5717 55.9839 73.5651 58.0519 73.5651C58.3363 73.5651 58.6132 73.543 58.8865 73.5097C58.9197 73.506 58.9567 73.5023 58.9973 73.495C59.9279 73.3546 60.7883 73.0149 61.5417 72.5163C62.4391 72.088 63.2995 71.6227 63.6909 71.3309C64.544 70.6921 66.143 70.6367 66.143 70.6367C66.143 70.6367 74.5184 70.585 80.1205 69.7836L85.8814 64.3809C85.874 64.3809 69.0161 60.448 65.3897 59.5913Z" fill="#76C458"/>
<path d="M50.5074 60.1784L60.4301 56.9878C60.4301 56.9878 61.8667 56.1975 65.2309 56.9878C68.5914 57.778 84.1716 61.9399 84.1716 61.9399C84.1716 61.9399 88.5477 63.8602 85.8777 68.1292L81.834 69.3663L81.8192 65.7805C81.8192 65.7805 82.1405 63.9673 80.9662 63.5389C79.7919 63.1105 65.3897 59.5912 65.3897 59.5912C65.3897 59.5912 62.0808 59.1629 60.4818 59.5912C58.8828 60.0196 50.7696 62.9998 50.7696 62.9998L50.5074 60.1784Z" fill="#5B5A57"/>
<path d="M63.9051 56.637L66.0285 46.2563L62.5092 45.5251L60.4265 56.9878L63.9051 56.637Z" fill="#5B5A57"/>
<path d="M69.5885 29.0623C66.0802 29.6495 64.9428 29.306 63.041 29.0401C60.8105 28.7299 59.47 29.4094 58.7462 29.7381C58.0224 30.0668 57.1509 31.3814 58.676 31.6584L65.6334 32.925C65.3047 34.8306 63.6355 44.4616 63.5395 44.7496L65.5226 45.1411L67.7088 33.3017L71.3352 33.9627C71.3352 33.9627 73.3921 34.1806 73.4623 32.1902C73.5324 30.1997 73.0967 28.4751 69.5885 29.0623Z" fill="black"/>
<path d="M8.34591 26.6287C6.58441 26.6287 6.58441 28.2979 6.58441 28.2979C6.58441 28.2979 6.61395 28.4641 6.66565 28.7595L16.9466 29.7861C16.9466 29.7861 20.4844 29.5165 21.2673 35.3882H18.5087C18.5087 35.3882 17.9658 32.1865 15.4067 32.0277C13.5529 31.9132 9.32452 31.5439 7.12726 31.3519C7.24543 32.0092 7.37468 32.722 7.51132 33.4495L10.6946 33.767C10.6946 33.767 14.2323 33.4975 15.0152 39.3691H12.2567C12.2567 39.3691 11.7138 36.1674 9.15465 36.0086C8.82968 35.9902 8.43454 35.9606 7.99139 35.9274C8.2462 37.2088 8.48993 38.324 8.67088 38.9555C9.30975 41.1971 11.23 41.1971 11.23 41.1971C11.23 41.1971 19.1623 41.9246 20.7244 42.2089C22.2902 42.4933 22.8589 40.5028 22.8589 40.5028L27.0208 28.4087C27.0171 28.405 10.1037 26.6287 8.34591 26.6287Z" fill="#76C458"/>
<path d="M27.523 47.1906L26.5444 50.3148C31.5777 52.9884 35.0195 58.284 35.0195 64.3698C35.0195 73.1367 27.8849 80.2713 19.118 80.2713C10.3511 80.2713 3.21649 73.1367 3.21649 64.3698C3.21649 55.6029 10.3511 48.4683 19.118 48.4683C20.0191 48.4683 20.9016 48.5496 21.7658 48.6936L22.7296 45.5916C21.5627 45.37 20.3551 45.2518 19.1217 45.2518C8.56007 45.2518 0 53.8119 0 64.3735C0 74.9351 8.56007 83.4952 19.1217 83.4952C29.6833 83.4952 38.2434 74.9351 38.2434 64.3735C38.2397 56.8253 33.871 50.3037 27.523 47.1906Z" fill="#26272F"/>
<path d="M97.8647 53.1509C97.0634 53.1509 96.5612 53.162 96.2473 53.1768C99.0428 56.0425 100.771 59.9569 100.771 64.2702C100.771 73.0371 93.6364 80.1717 84.8695 80.1717C78.9166 80.1717 73.7244 76.885 70.9991 72.0289C69.5552 72.088 68.307 72.1175 67.4355 72.1323C70.4341 78.7684 77.1145 83.3882 84.8695 83.3882C95.4311 83.3882 103.991 74.8281 103.991 64.2665C103.991 60.1305 102.68 56.3047 100.45 53.1768C99.6669 53.162 98.7215 53.1509 97.8647 53.1509Z" fill="#26272F"/>
<path d="M27.859 22.2785H34.8312C34.8312 22.2785 35.8282 22.4225 35.8282 21.2814C35.8282 20.144 35.2595 20 34.761 20C34.2624 20 27.859 20 27.859 20V22.2785Z" fill="black"/>
</svg>
