<svg width="104" height="104" viewBox="0 0 104 104" fill="none" xmlns="http://www.w3.org/2000/svg">
<path d="M28.477 63.725H39.1351C40.2601 63.725 41.1684 62.8134 41.1684 61.6916L31.3605 22.3048C31.3605 21.1799 30.4489 20.2715 29.3272 20.2715L18.6691 18.6357C17.5441 18.6357 16.6357 19.5474 16.6357 20.6691L26.4436 61.6884C26.4436 62.8134 27.352 63.725 28.477 63.725Z" fill="#5B5A57"/>
<path d="M18.6691 18.6357L29.3272 20.2715C30.4522 20.2715 31.3605 21.1831 31.3605 22.3048L41.1684 61.6916C41.1684 62.8166 40.2568 63.725 39.1351 63.725H28.477C27.352 63.725 26.4436 62.8134 26.4436 61.6916L16.6357 20.6723C16.6325 19.5441 17.5441 18.6357 18.6691 18.6357ZM18.6691 17C16.6454 17 15 18.6454 15 20.6691V20.863L15.0452 21.0505L24.8176 61.9115C24.9308 63.8317 26.5309 65.3607 28.4802 65.3607H39.1383C41.162 65.3607 42.8074 63.7153 42.8074 61.6916V61.4912L42.7589 61.2972L32.9898 22.0785C32.8734 20.2068 31.3508 18.7133 29.4694 18.6422L18.918 17.0226L18.7951 17.0032H18.6691V17Z" fill="white"/>
<path d="M19.6453 33.27L16.6325 20.6691C16.6325 19.5441 17.5441 18.6357 18.6658 18.6357L29.3239 20.2715C30.4489 20.2715 31.3573 21.1831 31.3573 22.3048L33.3357 30.2507C33.3357 30.2507 25.3639 29.2874 22.5095 29.1096C19.7617 28.935 19.6453 33.27 19.6453 33.27Z" fill="#33312C"/>
<path d="M40.218 69.1882H50.8761C52.0011 69.1882 52.9095 68.2766 52.9095 67.1548L43.1016 27.768C43.1016 26.643 42.1899 25.7347 41.0682 25.7347L30.4101 24.0989C29.2851 24.0989 28.3768 25.0105 28.3768 26.1323L38.1847 67.1516C38.1847 68.2798 39.093 69.1882 40.218 69.1882Z" fill="#5B5A57"/>
<path d="M30.4069 24.099L41.065 25.7347C42.19 25.7347 43.0983 26.6463 43.0983 27.7681L52.9062 67.1549C52.9062 68.2799 51.9946 69.1882 50.8729 69.1882H40.2148C39.0898 69.1882 38.1814 68.2766 38.1814 67.1549L28.3735 26.1356C28.3735 25.0106 29.2851 24.099 30.4069 24.099ZM30.4069 22.4665C28.3832 22.4665 26.7378 24.1119 26.7378 26.1356V26.3295L26.7831 26.517L36.5554 67.3779C36.6686 69.2981 38.2687 70.8272 40.218 70.8272H50.8761C52.8998 70.8272 54.5452 69.1818 54.5452 67.1581V66.9577L54.4967 66.7637L44.7276 27.545C44.6112 25.6733 43.0886 24.1798 41.2072 24.1087L30.6558 22.4891L30.533 22.4697H30.4069V22.4665Z" fill="white"/>
<path d="M31.3864 38.7332L28.3735 26.1323C28.3735 25.0073 29.2851 24.0989 30.4069 24.0989L41.065 25.7347C42.19 25.7347 43.0983 26.6463 43.0983 27.768L45.0767 35.7139C45.0767 35.7139 37.105 34.7506 34.2505 34.5728C31.5028 34.4014 31.3864 38.7332 31.3864 38.7332Z" fill="#33312C"/>
<path d="M51.9591 74.6546H62.6172C63.7422 74.6546 64.6505 73.743 64.6505 72.6213L54.8426 33.2344C54.8426 32.1095 53.931 31.2011 52.8093 31.2011L42.1512 29.5654C41.0262 29.5654 40.1178 30.477 40.1178 31.5987L49.9257 72.618C49.9225 73.743 50.8341 74.6546 51.9591 74.6546Z" fill="#5B5A57"/>
<path d="M42.1479 29.5654L52.806 31.2011C53.931 31.2011 54.8394 32.1127 54.8394 33.2344L64.6473 72.6213C64.6473 73.7462 63.7357 74.6546 62.614 74.6546H51.9559C50.8309 74.6546 49.9225 73.743 49.9225 72.6213L40.1146 31.5987C40.1146 30.477 41.0262 29.5654 42.1479 29.5654ZM42.1479 27.9296C40.1243 27.9296 38.4789 29.5751 38.4789 31.5987V31.7927L38.5241 31.9802L48.2965 72.8411C48.4096 74.7613 50.0098 76.2903 51.9591 76.2903H62.6172C64.6408 76.2903 66.2863 74.6449 66.2863 72.6213V72.4208L66.2378 72.2269L56.4686 33.0082C56.3523 31.1364 54.8297 29.6429 52.9483 29.5718L42.3969 27.9523L42.274 27.9329H42.1479V27.9296Z" fill="white"/>
<path d="M43.1274 44.1996L40.1146 31.5987C40.1146 30.4737 41.0262 29.5654 42.1479 29.5654L52.806 31.2011C53.931 31.2011 54.8394 32.1127 54.8394 33.2344L56.8178 41.1803C56.8178 41.1803 48.846 40.217 45.9916 40.0392C43.2438 39.8646 43.1274 44.1996 43.1274 44.1996Z" fill="#33312C"/>
<path d="M63.7001 80.1211H74.3582C75.4832 80.1211 76.3916 79.2094 76.3916 78.0877L66.5804 38.7009C66.5804 37.5759 65.6688 36.6675 64.5471 36.6675L53.889 35.0318C52.764 35.0318 51.8556 35.9434 51.8556 37.0651L61.6635 78.0845C61.6635 79.2094 62.5751 80.1211 63.7001 80.1211Z" fill="#5B5A57"/>
<path d="M53.889 35.0286L64.5471 36.6643C65.672 36.6643 66.5804 37.576 66.5804 38.6977L76.3883 78.0845C76.3883 79.2095 75.4767 80.1179 74.355 80.1179H63.6969C62.5719 80.1179 61.6635 79.2062 61.6635 78.0845L51.8556 37.0652C51.8556 35.9402 52.7672 35.0286 53.889 35.0286ZM53.889 33.3961C51.8653 33.3961 50.2199 35.0415 50.2199 37.0652V37.2592L50.2652 37.4466L60.0375 78.3076C60.1507 80.2278 61.7508 81.7568 63.7001 81.7568H74.3582C76.3819 81.7568 78.0273 80.1114 78.0273 78.0877V77.8873L77.9788 77.6934L68.2097 38.4746C68.0933 36.6029 66.5707 35.1094 64.6893 35.0383L54.1379 33.4187L54.0151 33.3994H53.889V33.3961Z" fill="white"/>
<path d="M54.8685 49.6628L51.8556 37.0619C51.8556 35.9369 52.7672 35.0286 53.889 35.0286L64.5471 36.6643C65.672 36.6643 66.5804 37.5759 66.5804 38.6976L68.5588 46.6435C68.5588 46.6435 60.5871 45.6802 57.7326 45.5024C54.9849 45.3311 54.8685 49.6628 54.8685 49.6628Z" fill="#33312C"/>
<path d="M75.4412 85.5843H86.0993C87.2242 85.5843 88.1326 84.6727 88.1326 83.551L78.3247 44.1641C78.3247 43.0392 77.4131 42.1308 76.2914 42.1308L65.6333 40.4951C64.5083 40.4951 63.5999 41.4067 63.5999 42.5284L73.4078 83.5477C73.4046 84.6727 74.3162 85.5843 75.4412 85.5843Z" fill="#5B5A57"/>
<path d="M65.63 40.495L76.2881 42.1308C77.4131 42.1308 78.3215 43.0424 78.3215 44.1641L88.1294 83.5509C88.1294 84.6759 87.2178 85.5843 86.096 85.5843H75.4379C74.313 85.5843 73.4046 84.6727 73.4046 83.5509L63.5967 42.5316C63.5967 41.4067 64.5051 40.495 65.63 40.495ZM65.63 38.8593C63.6064 38.8593 61.9609 40.5047 61.9609 42.5284V42.7223L62.0062 42.9098L71.7785 83.7708C71.8917 85.691 73.4919 87.22 75.4412 87.22H86.0993C88.1229 87.22 89.7684 85.5746 89.7684 83.5509V83.3505L89.7199 83.1565L79.9507 43.9378C79.8344 42.0661 78.3118 40.5726 76.4304 40.5015L65.8789 38.8819L65.7561 38.8625H65.63V38.8593Z" fill="white"/>
<path d="M75.6028 85.5843H86.2609C87.3859 85.5843 88.2942 84.6727 88.2942 83.551L78.4863 44.1641C78.4863 43.0392 77.5747 42.1308 76.453 42.1308L65.7949 40.4951C64.6699 40.4951 63.7615 41.4067 63.7615 42.5284L73.5695 83.5477C73.5695 84.6727 74.4811 85.5843 75.6028 85.5843Z" fill="#5B5A57"/>
<path d="M65.7949 40.495L76.453 42.1308C77.578 42.1308 78.4863 43.0424 78.4863 44.1641L88.2942 83.5509C88.2942 84.6759 87.3827 85.5843 86.2609 85.5843H75.6028C74.4778 85.5843 73.5695 84.6727 73.5695 83.5509L63.7615 42.5316C63.7583 41.4067 64.6699 40.495 65.7949 40.495ZM65.7949 38.8593C63.7712 38.8593 62.1258 40.5047 62.1258 42.5284V42.7223L62.1711 42.9098L71.9434 83.7708C72.0566 85.691 73.6567 87.22 75.606 87.22H86.2642C88.2878 87.22 89.9332 85.5746 89.9332 83.5509V83.3505L89.8847 83.1565L80.1156 43.9378C79.9992 42.0661 78.4766 40.5726 76.5952 40.5015L66.0438 38.8819L65.921 38.8625H65.7949V38.8593Z" fill="white"/>
<path d="M66.7711 55.1293L63.7583 42.5284C63.7583 41.4034 64.6699 40.4951 65.7917 40.4951L76.4498 42.1308C77.5747 42.1308 78.4831 43.0424 78.4831 44.1641L80.4615 52.11C80.4615 52.11 72.4897 51.1467 69.6353 50.9689C66.8875 50.7976 66.7711 55.1293 66.7711 55.1293Z" fill="#33312C"/>
</svg>
