<svg width="104" height="104" viewBox="0 0 104 104" fill="none" xmlns="http://www.w3.org/2000/svg">
<path d="M28.4764 63.725H39.134C40.2589 63.725 41.1673 62.8134 41.1673 61.6916L31.3598 22.3048C31.3598 21.1798 30.4482 20.2715 29.3265 20.2715L18.6689 18.6357C17.544 18.6357 16.6356 19.5473 16.6356 20.6691L26.4431 61.6884C26.4431 62.8134 27.3515 63.725 28.4764 63.725Z" fill="#E6E6E6"/>
<path d="M18.6689 18.6357L29.3266 20.2715C30.4515 20.2715 31.3598 21.1831 31.3598 22.3048L41.1673 61.6916C41.1673 62.8166 40.2557 63.725 39.134 63.725H28.4764C27.3515 63.725 26.4431 62.8134 26.4431 61.6916L16.6357 20.6723C16.6324 19.5441 17.544 18.6357 18.6689 18.6357ZM18.6689 17C16.6453 17 15 18.6454 15 20.6691V20.863L15.0452 21.0505L24.8172 61.9115C24.9303 63.8317 26.5304 65.3607 28.4796 65.3607H39.1373C41.1608 65.3607 42.8062 63.7153 42.8062 61.6916V61.4912L42.7577 61.2972L32.989 22.0785C32.8726 20.2068 31.3501 18.7133 29.4688 18.6422L18.9178 17.0226L18.795 17.0032H18.6689V17Z" fill="black"/>
<path d="M19.6451 33.27L16.6324 20.6691C16.6324 19.5441 17.544 18.6357 18.6656 18.6357L29.3233 20.2715C30.4482 20.2715 31.3565 21.1831 31.3565 22.3048L33.3349 30.2507C33.3349 30.2507 25.3634 29.2874 22.5091 29.1096C19.7615 28.935 19.6451 33.27 19.6451 33.27Z" fill="#808080"/>
<path d="M40.217 69.1882H50.8746C51.9995 69.1882 52.9079 68.2766 52.9079 67.1548L43.1004 27.768C43.1004 26.643 42.1888 25.7347 41.0671 25.7347L30.4095 24.0989C29.2846 24.0989 28.3762 25.0106 28.3762 26.1323L38.1837 67.1516C38.1837 68.2798 39.092 69.1882 40.217 69.1882Z" fill="#E6E6E6"/>
<path d="M30.4062 24.0989L41.0639 25.7347C42.1888 25.7347 43.0971 26.6463 43.0971 27.768L52.9046 67.1548C52.9046 68.2798 51.993 69.1882 50.8714 69.1882H40.2137C39.0888 69.1882 38.1804 68.2766 38.1804 67.1548L28.373 26.1355C28.373 25.0106 29.2845 24.0989 30.4062 24.0989ZM30.4062 22.4664C28.3827 22.4664 26.7373 24.1119 26.7373 26.1355V26.3295L26.7825 26.517L36.5545 67.3779C36.6676 69.2981 38.2677 70.8271 40.2169 70.8271H50.8746C52.8982 70.8271 54.5435 69.1817 54.5435 67.1581V66.9576L54.495 66.7637L44.7263 27.545C44.6099 25.6733 43.0874 24.1798 41.2061 24.1086L30.6551 22.4891L30.5323 22.4697H30.4062V22.4664Z" fill="black"/>
<path d="M31.3857 38.7332L28.373 26.1323C28.373 25.0073 29.2846 24.0989 30.4062 24.0989L41.0639 25.7347C42.1888 25.7347 43.0971 26.6463 43.0971 27.768L45.0755 35.7139C45.0755 35.7139 37.104 34.7506 34.2497 34.5728C31.5021 34.4015 31.3857 38.7332 31.3857 38.7332Z" fill="#808080"/>
<path d="M51.9575 74.6546H62.6151C63.74 74.6546 64.6484 73.743 64.6484 72.6213L54.8409 33.2345C54.8409 32.1095 53.9293 31.2011 52.8076 31.2011L42.15 29.5654C41.0251 29.5654 40.1167 30.477 40.1167 31.5987L49.9242 72.618C49.921 73.743 50.8325 74.6546 51.9575 74.6546Z" fill="#E6E6E6"/>
<path d="M42.1468 29.5654L52.8044 31.2011C53.9293 31.2011 54.8377 32.1127 54.8377 33.2345L64.6451 72.6213C64.6451 73.7462 63.7336 74.6546 62.6119 74.6546H51.9543C50.8293 74.6546 49.921 73.743 49.921 72.6213L40.1135 31.5987C40.1135 30.477 41.0251 29.5654 42.1468 29.5654ZM42.1468 27.9296C40.1232 27.9296 38.4778 29.5751 38.4778 31.5987V31.7927L38.5231 31.9802L48.295 72.8411C48.4082 74.7613 50.0083 76.2903 51.9575 76.2903H62.6151C64.6387 76.2903 66.284 74.6449 66.284 72.6213V72.4208L66.2356 72.2269L56.4669 33.0082C56.3505 31.1365 54.828 29.643 52.9466 29.5718L42.3957 27.9523L42.2728 27.9329H42.1468V27.9296Z" fill="black"/>
<path d="M43.1262 44.1997L40.1135 31.5987C40.1135 30.4738 41.0251 29.5654 42.1468 29.5654L52.8044 31.2011C53.9293 31.2011 54.8377 32.1127 54.8377 33.2345L56.816 41.1804C56.816 41.1804 48.8446 40.217 45.9903 40.0392C43.2426 39.8647 43.1262 44.1997 43.1262 44.1997Z" fill="#808080"/>
<path d="M63.6981 80.1211H74.3557C75.4806 80.1211 76.389 79.2094 76.389 78.0877L66.5782 38.7009C66.5782 37.5759 65.6667 36.6675 64.545 36.6675L53.8873 35.0318C52.7624 35.0318 51.8541 35.9434 51.8541 37.0652L61.6616 78.0845C61.6616 79.2094 62.5731 80.1211 63.6981 80.1211Z" fill="#E6E6E6"/>
<path d="M53.8873 35.0286L64.545 36.6643C65.6699 36.6643 66.5782 37.5759 66.5782 38.6977L76.3857 78.0845C76.3857 79.2094 75.4741 80.1178 74.3525 80.1178H63.6948C62.5699 80.1178 61.6615 79.2062 61.6615 78.0845L51.854 37.0652C51.854 35.9402 52.7656 35.0286 53.8873 35.0286ZM53.8873 33.3961C51.8638 33.3961 50.2184 35.0415 50.2184 37.0652V37.2591L50.2636 37.4466L60.0356 78.3075C60.1487 80.2277 61.7488 81.7568 63.698 81.7568H74.3557C76.3792 81.7568 78.0246 80.1114 78.0246 78.0877V77.8873L77.9761 77.6933L68.2074 38.4746C68.091 36.6029 66.5685 35.1094 64.6872 35.0383L54.1362 33.4187L54.0134 33.3993H53.8873V33.3961Z" fill="black"/>
<path d="M54.8668 49.6629L51.8541 37.0619C51.8541 35.937 52.7657 35.0286 53.8873 35.0286L64.545 36.6643C65.6699 36.6643 66.5782 37.5759 66.5782 38.6977L68.5566 46.6436C68.5566 46.6436 60.5851 45.6802 57.7308 45.5024C54.9832 45.3311 54.8668 49.6629 54.8668 49.6629Z" fill="#808080"/>
<path d="M75.4386 85.5843H86.0962C87.2212 85.5843 88.1295 84.6727 88.1295 83.5509L78.322 44.1641C78.322 43.0391 77.4104 42.1308 76.2887 42.1308L65.6311 40.495C64.5062 40.495 63.5978 41.4066 63.5978 42.5284L73.4053 83.5477C73.4021 84.6727 74.3137 85.5843 75.4386 85.5843Z" fill="#5B5A57"/>
<path d="M65.6279 40.495L76.2855 42.1308C77.4104 42.1308 78.3188 43.0424 78.3188 44.1641L88.1263 83.5509C88.1263 84.6759 87.2147 85.5843 86.093 85.5843H75.4353C74.3104 85.5843 73.4021 84.6727 73.4021 83.5509L63.5946 42.5316C63.5946 41.4066 64.5029 40.495 65.6279 40.495ZM65.6279 38.8593C63.6043 38.8593 61.9589 40.5047 61.9589 42.5284V42.7223L62.0042 42.9098L71.7761 83.7708C71.8892 85.691 73.4894 87.22 75.4386 87.22H86.0962C88.1198 87.22 89.7651 85.5746 89.7651 83.5509V83.3505L89.7166 83.1565L79.948 43.9378C79.8316 42.0661 78.3091 40.5726 76.4277 40.5015L65.8767 38.8819L65.7539 38.8625H65.6279V38.8593Z" fill="white"/>
<path d="M75.6002 85.5843H86.2579C87.3828 85.5843 88.2911 84.6727 88.2911 83.5509L78.4836 44.1641C78.4836 43.0391 77.5721 42.1308 76.4504 42.1308L65.7927 40.495C64.6678 40.495 63.7595 41.4066 63.7595 42.5284L73.567 83.5477C73.567 84.6727 74.4785 85.5843 75.6002 85.5843Z" fill="#E6E6E6"/>
<path d="M65.7927 40.495L76.4503 42.1308C77.5753 42.1308 78.4836 43.0424 78.4836 44.1641L88.2911 83.5509C88.2911 84.6759 87.3795 85.5843 86.2578 85.5843H75.6002C74.4753 85.5843 73.5669 84.6727 73.5669 83.5509L63.7594 42.5316C63.7562 41.4066 64.6678 40.495 65.7927 40.495ZM65.7927 38.8593C63.7691 38.8593 62.1238 40.5047 62.1238 42.5284V42.7223L62.169 42.9098L71.941 83.7708C72.0541 85.691 73.6542 87.22 75.6034 87.22H86.2611C88.2846 87.22 89.93 85.5746 89.93 83.5509V83.3505L89.8815 83.1565L80.1128 43.9378C79.9964 42.0661 78.4739 40.5726 76.5926 40.5015L66.0416 38.8819L65.9188 38.8625H65.7927V38.8593Z" fill="black"/>
<path d="M66.7689 55.1293L63.7562 42.5284C63.7562 41.4034 64.6678 40.495 65.7895 40.495L76.4471 42.1308C77.5721 42.1308 78.4804 43.0424 78.4804 44.1641L80.4587 52.11C80.4587 52.11 72.4873 51.1467 69.633 50.9689C66.8853 50.7975 66.7689 55.1293 66.7689 55.1293Z" fill="#808080"/>
</svg>
